/* XPM */
static char * sbk_xpm[] = {
"34 34 6 1",
" 	c None",
".	c #000000",
"+	c #7F7F7F",
"@	c #FF0000",
"#	c #FFFFFF",
"$	c #BFBFBF",
"                                  ",
"                                  ",
"       ..                         ",
"      ...+                        ",
"      .  +                        ",
"     +.  .                        ",
"     .   .   @.@.@.@.@.@.@.       ",
"     .  ..     .@.    @.@         ",
"       +.      @.@    .@.         ",
"      ...      .@.    @.@         ",
"      ...      @.@    .@.         ",
"     ...       .@.    @.@         ",
"    ...        @#@ ...#@# ...++   ",
"   ....        #@#....@#@....++   ",
"   ..  .      +@#@....#@#....++++ ",
"  ..   .     ++#@#....@#@....++++ ",
"  ..  ..... ++#@#@...+#@#...+###+ ",
" ..  ......++#.#@#..+.@#@..+####. ",
" ..  .  . ..#@#@#@#@#@#@#@######. ",
"  .  .  .++.##....++#....+######. ",
"  .  .  ++#.##...++##...+#######. ",
"  ++  .++#..##++++###+++#######+. ",
"   .  ++#..###$######$########++. ",
"    +.....###$######$########+++. ",
"      .$#.###$$#####$$######++++. ",
"      .+#.###.+#####.+#####++++.  ",
"     ..++.+++.++++++.+++++++++.   ",
"    ...++.+++.++++++.++++++++.    ",
"    ...++.+++.++++++.+++++++.     ",
"    ........................      ",
"      ..+                         ",
"                                  ",
"                                  ",
"                                  "};
